<svg xmlns="http://www.w3.org/2000/svg" width="22.356" height="15.697" viewBox="0 0 22.356 15.697"><defs><style>.a{fill:#4a4a4a;}</style></defs><g transform="translate(0 -77.593)"><path class="a" d="M22.284,89.5a.183.183,0,0,1,0,.29l-4.5,3.457a.183.183,0,0,1-.282-.213l.749-1.9a9.048,9.048,0,0,1-6.686-2.755c.5-.573.919-1.154,1.3-1.684.189-.264.37-.515.551-.755a5.976,5.976,0,0,0,4.824,2.182l-.739-1.869a.184.184,0,0,1,.283-.213ZM4.568,84.836a.184.184,0,0,0,.282-.213l-.733-1.856a6.132,6.132,0,0,1,4.819,2.25c.179-.237.358-.485.544-.744.382-.533.8-1.118,1.308-1.7A9.25,9.25,0,0,0,4.1,79.751l.754-1.907a.183.183,0,0,0-.282-.213l-4.5,3.457a.183.183,0,0,0,0,.29ZM12.4,86.365c1.343-1.873,2.427-3.38,5.841-3.6l-.733,1.856a.184.184,0,0,0,.282.213l4.5-3.457a.183.183,0,0,0,0-.29l-4.5-3.457a.183.183,0,0,0-.282.213l.754,1.907c-5.01.262-6.832,2.8-8.309,4.859-1.339,1.867-2.413,3.362-5.839,3.519L4.85,86.26a.184.184,0,0,0-.282-.213L.071,89.5a.183.183,0,0,0,0,.29l4.5,3.457a.183.183,0,0,0,.282-.213l-.749-1.9C9.1,90.954,10.925,88.418,12.4,86.365Z" transform="translate(0)"/></g></svg>