<svg xmlns="http://www.w3.org/2000/svg" width="18.979" height="18.979" viewBox="0 0 18.979 18.979"><defs><style>.a{fill:#5aba47;}.b{fill:#fafafa;}</style></defs><path class="a" d="M18.979,2.175A2.176,2.176,0,0,0,16.8,0H2.175A2.176,2.176,0,0,0,0,2.175V16.8a2.176,2.176,0,0,0,2.175,2.175H16.8A2.176,2.176,0,0,0,18.979,16.8Zm0,0"/><path class="b" d="M150.388,165.56a.79.79,0,0,1,0,1.118l-5.14,5.14a.79.79,0,0,1-1.118,0l-2.57-2.57a.791.791,0,0,1,1.118-1.118l2.011,2.011,4.581-4.581a.79.79,0,0,1,1.118,0Zm0,0" transform="translate(-136.09 -159.2)"/></svg>