<svg xmlns="http://www.w3.org/2000/svg" width="322.095" height="64.01" viewBox="0 0 322.095 64.01"><defs><style>.a{fill:#5eae32;}.b{fill:#fff;}</style></defs><g transform="translate(332.872 -252.99)"><g transform="translate(-332.872 252.99)"><path class="a" d="M2973.376,1450.375v12.751A31.887,31.887,0,0,1,2955,1450.375Z" transform="translate(-2949.273 -1400.102)"/><path class="a" d="M2972.665,1120.469a25.832,25.832,0,0,0-4.992-.477,27.467,27.467,0,0,0-27.442,27.442v4.324H2918a31.986,31.986,0,0,1,54.661-31.29Z" transform="translate(-2916.128 -1108.99)"/><path class="a" d="M3157.44,1450.375a32.07,32.07,0,0,1-26.3,13.737h-.382v-13.737Z" transform="translate(-3099.154 -1400.102)"/><path class="a" d="M3163.132,1248.144a31.881,31.881,0,0,1-1.876,10.779h-30.495V1254.6a19.949,19.949,0,0,1,19.938-19.937,19.616,19.616,0,0,1,10.717,3.148A31.75,31.75,0,0,1,3163.132,1248.144Z" transform="translate(-3099.154 -1216.155)"/></g><g transform="translate(-251.419 261.893)"><path class="b" d="M3531.842,1318.859a4.83,4.83,0,0,0-3.261-1.1,4.887,4.887,0,0,0-3.232,1.1,3.673,3.673,0,0,0-1.3,2.934,3.547,3.547,0,0,0,1.37,3.083,5.452,5.452,0,0,0,6.33,0,3.546,3.546,0,0,0,1.37-3.083A3.659,3.659,0,0,0,3531.842,1318.859Zm0-10.366a4.83,4.83,0,0,0-3.261-1.1,4.887,4.887,0,0,0-3.232,1.1,3.673,3.673,0,0,0-1.3,2.934,3.547,3.547,0,0,0,1.37,3.083,5.451,5.451,0,0,0,6.33,0,3.545,3.545,0,0,0,1.37-3.083A3.659,3.659,0,0,0,3531.842,1308.493Z" transform="translate(-3515.981 -1287.077)"/><path class="b" d="M3534.174,1288.783v26.465h-29.905v-18.214h-1.921a8.686,8.686,0,0,0-1.832.179,3.462,3.462,0,0,0-1.474.745,3.5,3.5,0,0,0-1.073,1.489,5.085,5.085,0,0,0-.387,2.04v19.5h-14.774c-1.594,0-2.994-.06-4.214-.164a23.51,23.51,0,0,1-6.375-1.444,27.5,27.5,0,0,1-2.979-1.385l3.381-7.566a14.93,14.93,0,0,0,4.289,1.817,20.272,20.272,0,0,0,4.438.476h7.968v-10.231a18.638,18.638,0,0,1,1.042-6.6,10.158,10.158,0,0,1,3.321-4.5,12,12,0,0,1,4.036-1.966,19.884,19.884,0,0,1,5.362-.641h9.457v18.2h13.389v-18.2Z" transform="translate(-3469.24 -1271.209)"/><path class="b" d="M3833.007,1216.331a4.53,4.53,0,0,0-3.1-1.072,4.469,4.469,0,0,0-3.053,1.072,3.639,3.639,0,0,0-1.207,2.83,3.36,3.36,0,0,0,1.281,2.889,4.812,4.812,0,0,0,2.979.953,4.883,4.883,0,0,0,3.023-.953,3.362,3.362,0,0,0,1.28-2.889A3.637,3.637,0,0,0,3833.007,1216.331Zm-10.708,0a4.571,4.571,0,0,0-3.082-1.072,4.507,4.507,0,0,0-3.068,1.072,3.614,3.614,0,0,0-1.236,2.83,3.4,3.4,0,0,0,1.281,2.889,5.3,5.3,0,0,0,6.062,0,3.4,3.4,0,0,0,1.281-2.889A3.614,3.614,0,0,0,3822.3,1216.331Z" transform="translate(-3764.008 -1208.512)"/><path class="b" d="M3998.628,1226.6v26.465h-30.5v-37.2h8.251V1244.8h14v-18.2Z" transform="translate(-3894.66 -1209.03)"/><path class="b" d="M4080.276,1484.116a5,5,0,0,0-6.151,0,3.534,3.534,0,0,0-1.207,2.8,3.411,3.411,0,0,0,1.281,2.934,4.825,4.825,0,0,0,2.979.968,4.894,4.894,0,0,0,3.023-.968,3.421,3.421,0,0,0,1.3-2.934A3.545,3.545,0,0,0,4080.276,1484.116Zm-10.708,0a5,5,0,0,0-6.15,0,3.51,3.51,0,0,0-1.236,2.8,3.449,3.449,0,0,0,1.281,2.934,5.228,5.228,0,0,0,6.062,0,3.45,3.45,0,0,0,1.281-2.934A3.51,3.51,0,0,0,4069.568,1484.116Z" transform="translate(-3974.863 -1436.875)"/><path class="b" d="M4335.988,1286.344a14.411,14.411,0,0,0-3.1-4.587,14.642,14.642,0,0,0-4.587-3.053,14.226,14.226,0,0,0-5.555-1.1,13.537,13.537,0,0,0-5.451,1.132,14.268,14.268,0,0,0-4.5,3.068,14.538,14.538,0,0,0-3.053,4.587,14.373,14.373,0,0,0-1.117,5.659c0,.283,0,.551.015.834s.044.551.074.819h-2.89a9.087,9.087,0,0,1-5.272-1.326,30.714,30.714,0,0,0,.268-4.215v-14.953h-8.25v15.951a6.16,6.16,0,0,1-1.013,3.768,3.97,3.97,0,0,1-3.4,1.325,5.887,5.887,0,0,1-1.951-.3,3.517,3.517,0,0,1-1.534-1.013,4.878,4.878,0,0,1-1.013-1.877,10.817,10.817,0,0,1-.4-2.859V1277.8H4275v10.41a5.156,5.156,0,0,1-1.579,4.2,6.887,6.887,0,0,1-4.468,1.3h-2.979V1277.8h-8.266V1293.7h-16.144v-18.2h-8.251v18.2h-13.582l-.045.149V1275.5h-8.25v24.067a4.752,4.752,0,0,1-.923,3.2A3.192,3.192,0,0,1,4208,1303.8a11.255,11.255,0,0,1-1.489-.09c-.447-.06-1.012-.178-1.728-.327l.968,8.206a10.935,10.935,0,0,0,1.475.328,10.318,10.318,0,0,0,1.653.134,16.164,16.164,0,0,0,4.736-.6,7.529,7.529,0,0,0,3.188-1.832,8,8,0,0,0,1.892-3.142,19.943,19.943,0,0,0,.863-4.512h49.579a13.881,13.881,0,0,0,5.183-1,14.391,14.391,0,0,0,4.5-2.77c1.981,2.815,5.123,4.215,9.4,4.215a16.69,16.69,0,0,0,6.4-1.042,8.8,8.8,0,0,0,3.961-3.217,11.9,11.9,0,0,0,3.054,2.666,7.663,7.663,0,0,0,3.187,1.087,7.582,7.582,0,0,0,1.012.059h6.971a15,15,0,0,0,4.542,3.038,13.184,13.184,0,0,0,5.406,1.132,13.848,13.848,0,0,0,5.436-1.1,15.311,15.311,0,0,0,4.587-2.979,14.277,14.277,0,0,0,3.172-4.453,13.309,13.309,0,0,0,1.161-5.555A14.485,14.485,0,0,0,4335.988,1286.344Zm-7.625,7.983a5.885,5.885,0,0,1-1.3,1.876,5.608,5.608,0,0,1-1.937,1.236,6.109,6.109,0,0,1-2.338.447,5.964,5.964,0,0,1-2.309-.462,5.875,5.875,0,0,1-1.876-1.236,5.416,5.416,0,0,1-1.266-1.891,5.847,5.847,0,0,1-.461-2.338,6.722,6.722,0,0,1,.431-2.4,5.715,5.715,0,0,1,3.128-3.247,6.08,6.08,0,0,1,2.354-.447,6.349,6.349,0,0,1,2.427.447,5.693,5.693,0,0,1,1.906,1.3,6.038,6.038,0,0,1,1.266,1.951,6.423,6.423,0,0,1,.461,2.4A5.615,5.615,0,0,1,4328.363,1294.326Z" transform="translate(-4096.462 -1257.928)"/><path class="b" d="M4377.1,1216.331a4.531,4.531,0,0,0-3.1-1.072,4.443,4.443,0,0,0-3.053,1.072,3.649,3.649,0,0,0-1.221,2.83,3.372,3.372,0,0,0,1.3,2.889,4.813,4.813,0,0,0,2.979.953,4.881,4.881,0,0,0,3.023-.953,3.361,3.361,0,0,0,1.281-2.889A3.638,3.638,0,0,0,4377.1,1216.331Zm-10.708,0a4.572,4.572,0,0,0-3.083-1.072,4.505,4.505,0,0,0-3.067,1.072,3.614,3.614,0,0,0-1.236,2.83,3.4,3.4,0,0,0,1.281,2.889,5.3,5.3,0,0,0,6.062,0,3.4,3.4,0,0,0,1.281-2.889A3.614,3.614,0,0,0,4366.395,1216.331Z" transform="translate(-4227.979 -1208.512)"/><path class="b" d="M4652.605,1177.1a4.857,4.857,0,0,0-5.9,0,3.407,3.407,0,0,0-1.191,2.711,3.294,3.294,0,0,0,1.266,2.83,4.641,4.641,0,0,0,2.859.938,4.714,4.714,0,0,0,2.889-.923,3.288,3.288,0,0,0,1.236-2.844A3.43,3.43,0,0,0,4652.605,1177.1Zm4.8-6.776a3.805,3.805,0,0,0-2.577-.879,3.766,3.766,0,0,0-2.562.879,3.131,3.131,0,0,0,.089,4.691,4.248,4.248,0,0,0,4.974,0,3.175,3.175,0,0,0,.075-4.691Zm5.57,6.776a4.856,4.856,0,0,0-5.9,0,3.4,3.4,0,0,0-1.191,2.711,3.3,3.3,0,0,0,1.265,2.83,4.642,4.642,0,0,0,2.859.938,4.716,4.716,0,0,0,2.89-.923,3.288,3.288,0,0,0,1.236-2.844A3.429,3.429,0,0,0,4662.971,1177.1Z" transform="translate(-4472.294 -1169.445)"/><path class="b" d="M4884.09,1468.092v.059h1.013A7.549,7.549,0,0,1,4884.09,1468.092Z" transform="translate(-4675.735 -1424.113)"/></g></g></svg>