<svg xmlns="http://www.w3.org/2000/svg" width="26.238" height="24.865" viewBox="0 0 26.238 24.865"><defs><style>.a{fill:none;stroke:#4a4a4a;stroke-width:2px;}</style></defs><path class="a" d="M24.181,8.541c-.354-3.891-3.108-6.715-6.555-6.715a6.516,6.516,0,0,0-5.582,3.217A6.279,6.279,0,0,0,6.6,1.826c-3.447,0-6.2,2.823-6.555,6.715a6.924,6.924,0,0,0,.206,2.552,10.945,10.945,0,0,0,3.353,5.6l8.438,7.658,8.583-7.657a10.946,10.946,0,0,0,3.353-5.6A6.939,6.939,0,0,0,24.181,8.541Z" transform="translate(1.008 -0.826)"/></svg>