<svg xmlns="http://www.w3.org/2000/svg" width="27" height="21.429" viewBox="0 0 27 21.429"><defs><style>.a{fill:#4a4a4a;stroke:#4a4a4a;}</style></defs><g transform="translate(0.5 0.5)"><path class="a" d="M.929,1.857H25.072a.929.929,0,1,0,0-1.857H.929a.929.929,0,1,0,0,1.857Zm0,0"/><path class="a" d="M.929,184H25.072a.929.929,0,0,0,0-1.857H.929a.929.929,0,0,0,0,1.857Zm0,0" transform="translate(0 -173.57)"/><path class="a" d="M.929,367.572H25.072a.929.929,0,1,0,0-1.857H.929a.929.929,0,1,0,0,1.857Zm0,0" transform="translate(0 -347.143)"/></g></svg>