<svg xmlns="http://www.w3.org/2000/svg" width="130" height="377.077" viewBox="0 0 376.892 377.077"><defs><style>.a{opacity:1;}.b{fill:#5eae32;}</style></defs><g class="a" transform="translate(-108.166 -1077.034)"><path class="b" d="M255.306,1418.419v75.116a187.853,187.853,0,0,1-108.272-75.116Z" transform="translate(-5.15 -45.229)"/><path class="b" d="M441.223,1144.656a152.036,152.036,0,0,0-29.41-2.811c-89.165,0-161.656,72.494-161.656,161.658v25.475H119.22a187.671,187.671,0,0,1-11.054-63.5c0-103.964,84.482-188.446,188.446-188.446A188.31,188.31,0,0,1,441.223,1144.656Z" transform="translate(0 0)"/><path class="b" d="M479.963,1418.419c-34.281,48.889-90.853,80.922-154.915,80.922H322.8v-80.922Z" transform="translate(-28.436 -45.229)"/><path class="b" d="M513.494,1282.13a187.779,187.779,0,0,1-11.054,63.5H322.8v-25.475a117.518,117.518,0,0,1,117.451-117.448,115.55,115.55,0,0,1,63.13,18.545A187.021,187.021,0,0,1,513.494,1282.13Z" transform="translate(-28.436 -16.65)"/></g></svg>