<svg xmlns="http://www.w3.org/2000/svg" width="11.516" height="17.464" viewBox="0 0 11.516 17.464"><defs><style>.a{fill:#4a4a4a;}</style></defs><g transform="translate(-5.34)"><path class="a" d="M10.862,0c3.021,0,5.995,1.391,5.995,4.719,0,3.069-3.516,4.249-4.272,5.357-.567.825-.378,1.984-1.935,1.984a1.5,1.5,0,0,1-1.51-1.581c0-2.81,4.129-3.446,4.129-5.76,0-1.274-.848-2.029-2.264-2.029C7.983,2.69,9.163,5.8,6.875,5.8A1.412,1.412,0,0,1,5.34,4.366C5.339,2.051,7.982,0,10.862,0Zm-.118,13.592a1.936,1.936,0,1,1-1.936,1.936A1.945,1.945,0,0,1,10.744,13.592Z" transform="translate(0)"/></g></svg>