<svg xmlns="http://www.w3.org/2000/svg" width="10.751" height="14.425" viewBox="0 0 10.751 14.425"><defs><style>.a{fill:#d40003;}</style></defs><g transform="translate(0)"><path class="a" d="M74.527,109.685a.726.726,0,0,0,.725.7h6.777a.726.726,0,0,0,.725-.7l.484-10.217h-9.2Zm5.647-7.679a.3.3,0,0,1,.295-.295h.472a.3.3,0,0,1,.295.295v5.837a.3.3,0,0,1-.295.295h-.472a.3.3,0,0,1-.295-.295Zm-2.064,0a.3.3,0,0,1,.295-.295h.472a.3.3,0,0,1,.295.295v5.837a.3.3,0,0,1-.295.295H78.4a.3.3,0,0,1-.295-.295v-5.837Zm-2.064,0a.3.3,0,0,1,.295-.295h.472a.3.3,0,0,1,.295.295v5.837a.3.3,0,0,1-.295.295h-.472a.3.3,0,0,1-.295-.295Z" transform="translate(-73.265 -95.955)"/><path class="a" d="M62.312.743H59.185V.152A.152.152,0,0,0,59.033,0H55.75A.152.152,0,0,0,55.6.152V.743H52.472a.456.456,0,0,0-.456.456V2.63H62.767V1.2A.456.456,0,0,0,62.312.743Z" transform="translate(-52.016)"/></g></svg>