<svg xmlns="http://www.w3.org/2000/svg" width="18.293" height="26.079" viewBox="0 0 18.293 26.079"><defs><style>.a{fill:#5aba47;stroke:#5aba47;}</style></defs><g transform="translate(405.5 32.6)"><g transform="translate(-405 -32.1)"><path class="a" d="M4,14.9a4,4,0,0,0-.681,7.938V39.3a.681.681,0,1,0,1.362,0V22.838A4,4,0,0,0,4,14.9Zm0,6.639A2.638,2.638,0,1,1,6.639,18.9,2.641,2.641,0,0,1,4,21.539Z" transform="translate(0 -14.9)"/><path class="a" d="M334.8,39.979a4,4,0,0,1-.681-7.938V15.581a.681.681,0,0,1,1.362,0v16.46a4,4,0,0,1-.681,7.938Zm0-6.639a2.638,2.638,0,1,0,2.638,2.638A2.641,2.641,0,0,0,334.8,33.341Z" transform="translate(-321.507 -14.9)"/></g></g></svg>