<svg xmlns="http://www.w3.org/2000/svg" width="27.553" height="23.217" viewBox="0 0 27.553 23.217"><defs><style>.a{fill:#4a4a4a;}</style></defs><path class="a" d="M26.384,48.109H20.668l-3.206-7.342a.807.807,0,1,0-1.479.646l2.924,6.7H8.645l2.924-6.7a.807.807,0,1,0-1.479-.646L6.883,48.109H1.167A1.147,1.147,0,0,0,.028,49.5l3.01,13.111a1.162,1.162,0,0,0,1.139.891h19.2a1.162,1.162,0,0,0,1.139-.891L27.523,49.5A1.147,1.147,0,0,0,26.384,48.109ZM7.035,50.585A.808.808,0,0,1,6.3,49.454L6.9,48.066H8.664L7.775,50.1a.807.807,0,0,1-.74.484Zm2.7,8.61a.807.807,0,0,1-1.614,0v-5.92a.807.807,0,0,1,1.614,0Zm4.843,0a.807.807,0,0,1-1.614,0v-5.92a.807.807,0,0,1,1.614,0Zm4.843,0a.807.807,0,0,1-1.614,0v-5.92a.807.807,0,1,1,1.614,0Zm1.413-8.678a.806.806,0,0,1-1.063-.417l-.889-2.035h1.762l.606,1.389A.807.807,0,0,1,20.839,50.517Z" transform="translate(0 -40.283)"/></svg>