<svg xmlns="http://www.w3.org/2000/svg" width="27.173" height="26.022" viewBox="0 0 27.173 26.022"><defs><style>.a{fill:none;stroke:#f7bc3d;}</style></defs><path class="a" d="M11.809,1.832,8.861,7.806a1.407,1.407,0,0,1-1.06.77l-6.593.958a1.408,1.408,0,0,0-.78,2.4L5.2,16.585a1.408,1.408,0,0,1,.4,1.246L4.477,24.4a1.408,1.408,0,0,0,2.043,1.484l5.9-3.1a1.409,1.409,0,0,1,1.31,0l5.9,3.1A1.408,1.408,0,0,0,21.666,24.4L20.54,17.831a1.408,1.408,0,0,1,.4-1.246l4.771-4.65a1.407,1.407,0,0,0-.78-2.4l-6.593-.958a1.407,1.407,0,0,1-1.06-.77L14.333,1.832A1.407,1.407,0,0,0,11.809,1.832Z" transform="translate(0.515 -0.547)"/></svg>