<svg xmlns="http://www.w3.org/2000/svg" width="12.474" height="11.968" viewBox="0 0 12.474 11.968"><defs><style>.a{fill:#f7bc3d;stroke:#f7bc3d;}</style></defs><path class="a" d="M5.175,1.391,3.883,4.009a.617.617,0,0,1-.465.337l-2.889.42A.617.617,0,0,0,.188,5.818L2.278,7.855a.617.617,0,0,1,.177.546l-.493,2.877a.617.617,0,0,0,.9.65l2.584-1.358a.618.618,0,0,1,.574,0L8.6,11.929a.617.617,0,0,0,.9-.65L9,8.4a.617.617,0,0,1,.177-.546l2.091-2.038a.617.617,0,0,0-.342-1.052l-2.889-.42a.617.617,0,0,1-.465-.337L6.281,1.391A.617.617,0,0,0,5.175,1.391Z" transform="translate(0.509 -0.547)"/></svg>