<svg xmlns="http://www.w3.org/2000/svg" width="37.198" height="37.197" viewBox="0 0 37.198 37.197"><defs><style>.a{opacity:0.6;}.b{fill:#fff;}</style></defs><g class="a" transform="translate(0 37.197) rotate(-90)"><path class="b" d="M18.6,0A18.6,18.6,0,1,0,37.2,18.6,18.6,18.6,0,0,0,18.6,0Zm0,34.873A16.274,16.274,0,1,1,34.873,18.6,16.293,16.293,0,0,1,18.6,34.873Z"/><path class="b" d="M12.07.678a2.331,2.331,0,0,0-3.287,0L.762,8.7A2.174,2.174,0,0,0,.5,11.728a2.174,2.174,0,0,0,3.029-.258l3.29-3.29c.9-.9,1.644-.6,1.644.681V20.444a2.175,2.175,0,0,0,1.958,2.327,2.171,2.171,0,0,0,1.957-2.325V8.857c0-1.279.74-1.586,1.644-.681l3.294,3.294a2.171,2.171,0,0,0,3.029.258A2.174,2.174,0,0,0,20.089,8.7Z" transform="translate(8.174 7.452)"/></g></svg>