<svg xmlns="http://www.w3.org/2000/svg" width="37.198" height="37.197" viewBox="0 0 37.198 37.197"><defs><style>.a{opacity:0.6;}.b{fill:#fff;}</style></defs><g class="a" transform="translate(0 37.197) rotate(-90)"><path class="b" d="M18.6,37.2A18.6,18.6,0,1,1,37.2,18.6,18.6,18.6,0,0,1,18.6,37.2Zm0-34.873A16.274,16.274,0,1,0,34.873,18.6,16.293,16.293,0,0,0,18.6,2.325Z"/><path class="b" d="M12.07,22.093a2.331,2.331,0,0,1-3.287,0L.762,14.072A2.174,2.174,0,0,1,.5,11.043a2.174,2.174,0,0,1,3.029.258l3.29,3.29c.9.9,1.644.6,1.644-.681V2.327A2.175,2.175,0,0,1,10.423,0,2.171,2.171,0,0,1,12.38,2.325V13.914c0,1.279.74,1.586,1.644.681L17.318,11.3a2.171,2.171,0,0,1,3.029-.258,2.174,2.174,0,0,1-.258,3.029Z" transform="translate(8.174 6.974)"/></g></svg>